<svg xmlns="http://www.w3.org/2000/svg" id="uuid-f77c1f56-5a6e-4941-aa62-b215004c1135" viewBox="0 0 1438.8 532.6"><defs><style>.uuid-92d07a14-03c5-43ec-a4ca-97a1c4c743b6{letter-spacing:.03em;}.uuid-92d07a14-03c5-43ec-a4ca-97a1c4c743b6,.uuid-4b4fba68-7475-4ca7-b7b3-c72ae0992208,.uuid-cd0d6a53-0030-4262-af2e-3ccbc96d3582,.uuid-6acb29fe-5c0e-42b2-bae4-20083db48408,.uuid-07b74ee3-4679-447a-b832-8ed82bdb0013,.uuid-824b894b-b2ec-4bd3-9a1f-236f157f4a78{isolation:isolate;}.uuid-92d07a14-03c5-43ec-a4ca-97a1c4c743b6,.uuid-cd0d6a53-0030-4262-af2e-3ccbc96d3582,.uuid-6acb29fe-5c0e-42b2-bae4-20083db48408,.uuid-824b894b-b2ec-4bd3-9a1f-236f157f4a78{fill:#723e2f;}.uuid-92d07a14-03c5-43ec-a4ca-97a1c4c743b6,.uuid-6acb29fe-5c0e-42b2-bae4-20083db48408,.uuid-824b894b-b2ec-4bd3-9a1f-236f157f4a78{font-family:Myriad-Roman, 'Myriad Roman';font-size:127.27px;}.uuid-cd0d6a53-0030-4262-af2e-3ccbc96d3582{font-size:173.43px;}.uuid-cd0d6a53-0030-4262-af2e-3ccbc96d3582,.uuid-07b74ee3-4679-447a-b832-8ed82bdb0013{font-family:Georgia-Bold, Georgia;font-weight:700;}.uuid-07b74ee3-4679-447a-b832-8ed82bdb0013{font-size:205.53px;}.uuid-07b74ee3-4679-447a-b832-8ed82bdb0013,.uuid-d34ccf42-31bc-4f38-8417-ba3bd1b259a4{fill:#bc1d1d;}.uuid-824b894b-b2ec-4bd3-9a1f-236f157f4a78{letter-spacing:.04em;}</style></defs><g id="uuid-75b1d745-0f43-400d-b5fb-78db1700b82b"><g class="uuid-4b4fba68-7475-4ca7-b7b3-c72ae0992208"><text class="uuid-07b74ee3-4679-447a-b832-8ed82bdb0013" transform="translate(464.8 342.56) scale(.9 1)"><tspan x="0" y="0" xml:space="preserve">San José   </tspan></text></g><g class="uuid-4b4fba68-7475-4ca7-b7b3-c72ae0992208"><text class="uuid-6acb29fe-5c0e-42b2-bae4-20083db48408" transform="translate(459.09 166.31) scale(.9 1)"><tspan x="0" y="0">C</tspan></text></g><g class="uuid-4b4fba68-7475-4ca7-b7b3-c72ae0992208"><text class="uuid-6acb29fe-5c0e-42b2-bae4-20083db48408" transform="translate(527.64 166.31) scale(.9 1)"><tspan x="0" y="0">o</tspan></text></g><g class="uuid-4b4fba68-7475-4ca7-b7b3-c72ae0992208"><text class="uuid-6acb29fe-5c0e-42b2-bae4-20083db48408" transform="translate(594.1 166.31) scale(.9 1)"><tspan x="0" y="0">l</tspan></text></g><g><g class="uuid-4b4fba68-7475-4ca7-b7b3-c72ae0992208"><text class="uuid-92d07a14-03c5-43ec-a4ca-97a1c4c743b6" transform="translate(624.3 166.31) scale(.9 1)"><tspan x="0" y="0">e</tspan></text></g><g class="uuid-4b4fba68-7475-4ca7-b7b3-c72ae0992208"><text class="uuid-6acb29fe-5c0e-42b2-bae4-20083db48408" transform="translate(685.4 166.31) scale(.9 1)"><tspan x="0" y="0">g</tspan></text></g></g><g class="uuid-4b4fba68-7475-4ca7-b7b3-c72ae0992208"><text class="uuid-6acb29fe-5c0e-42b2-bae4-20083db48408" transform="translate(752.9 166.31) scale(.9 1)"><tspan x="0" y="0">i</tspan></text></g><g class="uuid-4b4fba68-7475-4ca7-b7b3-c72ae0992208"><text class="uuid-6acb29fe-5c0e-42b2-bae4-20083db48408" transform="translate(783.09 166.31) scale(.9 1)"><tspan x="0" y="0">o</tspan></text></g><g class="uuid-4b4fba68-7475-4ca7-b7b3-c72ae0992208"><text class="uuid-6acb29fe-5c0e-42b2-bae4-20083db48408" transform="translate(877.59 166.31) scale(.9 1)"><tspan x="0" y="0">b</tspan></text></g><g class="uuid-4b4fba68-7475-4ca7-b7b3-c72ae0992208"><text class="uuid-6acb29fe-5c0e-42b2-bae4-20083db48408" transform="translate(947.04 166.31) scale(.9 1)"><tspan x="0" y="0">i</tspan></text></g><g class="uuid-4b4fba68-7475-4ca7-b7b3-c72ae0992208"><text class="uuid-6acb29fe-5c0e-42b2-bae4-20083db48408" transform="translate(977.93 166.31) scale(.9 1)"><tspan x="0" y="0">l</tspan></text></g><g class="uuid-4b4fba68-7475-4ca7-b7b3-c72ae0992208"><text class="uuid-6acb29fe-5c0e-42b2-bae4-20083db48408" transform="translate(1008.92 166.31) scale(.9 1)"><tspan x="0" y="0">i</tspan></text></g><g><g class="uuid-4b4fba68-7475-4ca7-b7b3-c72ae0992208"><text class="uuid-824b894b-b2ec-4bd3-9a1f-236f157f4a78" transform="translate(1039.82 166.31) scale(.9 1)"><tspan x="0" y="0">ng</tspan></text></g><g class="uuid-4b4fba68-7475-4ca7-b7b3-c72ae0992208"><text class="uuid-6acb29fe-5c0e-42b2-bae4-20083db48408" transform="translate(1172.84 166.31) scale(.9 1)"><tspan x="0" y="0">ü</tspan></text></g></g><g class="uuid-4b4fba68-7475-4ca7-b7b3-c72ae0992208"><text class="uuid-6acb29fe-5c0e-42b2-bae4-20083db48408" transform="translate(1243.36 166.31) scale(.9 1)"><tspan x="0" y="0">e</tspan></text></g><g class="uuid-4b4fba68-7475-4ca7-b7b3-c72ae0992208"><text class="uuid-cd0d6a53-0030-4262-af2e-3ccbc96d3582" transform="translate(463.56 480.01) scale(.9 1)"><tspan x="0" y="0">campestre</tspan></text></g></g><g id="uuid-09a77389-8219-42b6-a0e9-d34a0d60a77a"><g><path class="uuid-d34ccf42-31bc-4f38-8417-ba3bd1b259a4" d="m131.23,231.37c9.53,32.41,19.33,53.86,28.81,74.6,13.43,29.43,26.12,57.22,36.66,113.99l16.68-3.24c-10.93-58.89-24.06-87.63-37.96-118.1-9.22-20.18-18.75-41.07-27.93-72.27l-16.26,5v.02h0Z"></path><path class="uuid-d34ccf42-31bc-4f38-8417-ba3bd1b259a4" d="m212.44,74.71h0c-.09,146.33-22.73,377.7-22.73,377.7,15.95-2.13,25-21.75,32.29-69.99,4.68-30.89,8.43-73.44,11.15-126.47,4.63-89.87,4.75-180.32,4.75-181.23h-25.48.02s0,0,0,0Z"></path><path class="uuid-d34ccf42-31bc-4f38-8417-ba3bd1b259a4" d="m311.86,232.16c-13.69,1.07-56.7,38.28-81.49,72.95-25.08,35.11-7.22,61.85-7.22,61.85-1.81-55.39,75.97-112.45,90.84-117.63,0,0-.33.1-.85.15l-1.28-17.33v.02h.01s0-.01,0-.01Z"></path><path class="uuid-d34ccf42-31bc-4f38-8417-ba3bd1b259a4" d="m219.92,291.38c.03,12.33-110.12-6.64-107.74-18.16,2.39-11.53-30.26,6.3-30.26,6.3l-13.28,7.68s-31.73,11.17-46.5,4.18C7.38,284.39.5,273.93,0,264.14c-.49-9.8,42.06-43.31,42.06-43.31,0,0,0-12.58,8.13-18.16,8.11-5.56,10.21-1.78,10.21-1.78,0,0-5.79-18.47,23-20.58-7.36-14.67,37.41-38.34,44.28-39.8,6.86-1.47,21.87,10.19,21.87,10.19,0,0,33.98,8.5,25.32,20.49-8.67,11.98,6.33,57.38,17.66,44.14,11.33-13.24,28.31,2.52,28.31,20.49s-17.31,37.84-9.99,46.04c0,0,9.05-2.83,9.06,9.51"></path><path class="uuid-d34ccf42-31bc-4f38-8417-ba3bd1b259a4" d="m207.23,234.79c.22,10.34-14.55,44.33-18.02,51.99-3.47,7.67-10.64,14.53-20.13,8.67-9.48-5.85-29.66-6.51-29.66-6.51,0,0,16.02,19.14,14.84,25.99-1.19,6.84-16.95,7.58-16.95,7.58,0,0-21.84,3.85-28.58,2.16-6.75-1.67-10.6-10.82-10.6-10.82,0,0-16.54-33.59-6.33-36.83,10.19-3.23,18.13-19.35,27.53-19.5,9.41-.15,12.67-14.46,2.11-17.33-10.55-2.87-18,11.91-18,11.91,0,0-19.47,19.42-36.01,18.42-16.54-1-21.79.73-32.82,1.07-11.05.36-23.82-11.72-26.48-33.57-2.66-21.85,15.88-17.33,15.88-17.33l20.11-5.41,22.25-32.48s4.23-24.67,23.29-31.42c70.75-8.25,57.22,24.96,70.61,23.99,13.38-.97,31.23-1.95,22.63,18.27-8.58,20.2,24.1,30.81,24.34,41.15"></path><path class="uuid-d34ccf42-31bc-4f38-8417-ba3bd1b259a4" d="m251.78,255.21c-7.1-7.99-15.09-14.94-11.06-23.08,4.03-8.15,27.29-8.51,27.29-8.51,0,0-11-63.74,10.34-59.15,21.36,4.61,30.69,14.77,30.69,14.77,0,0,35.18-3.54,41.51,6.47,6.35,10.01-1.36,53.89-1.36,53.89l23.46,1.59.47,25.75"></path><path class="uuid-d34ccf42-31bc-4f38-8417-ba3bd1b259a4" d="m291.2,289.55c12.65,6.08,36.23-13.79,36.23-13.79,0,0,23.36,19.59,33.92,9.77,14.74-22.13,33.02-23.84,41.74-34.02,8.67-10.17-.31-25.39-1.21-29.86-.9-4.45-13.69-36.7-22.71-40.81-9.03-4.11-15.71,10.7-22.87,11.13-7.15.4-11.55-13.36-20.54-13.45s-14.19,2.06-15.97,8.28c-1.76,6.21,2.9,16.94-3.99,19.79-6.91,2.85-29.86-22.68-26.74-33.25,3.14-10.57,8.67-9.06,3.87-21.01-4.8-11.93-15.73-19.25-15.73-19.25,0,0-6.58-5.72-17.61-2.01-11.01,3.68,11.86,22.52,2.15,27.36-9.7,4.85-8.3-5-13.35-1.66-5.06,3.35-14.29,30.77-8.01,39.58,6.28,8.79,5.18-2.13,23.39,5.96,18.2,8.09-11.41,17.78-6.23,33.37,5.18,15.57,2.45,8.94,2.61,19.99.15,11.06,31,33.88,31,33.88"></path><path class="uuid-d34ccf42-31bc-4f38-8417-ba3bd1b259a4" d="m340.62,155.78s18.44-16.56,16.24-25.92c-2.21-9.36-44.19-34.63-28.03-68.41,10.93-20.83,2.21-18.71-2.95-28.79-5.16-10.07-69.38-22.32-69.38-22.32,0,0-10.33-11.51-25.08-10.07-14.76,1.43-25.08,15.11-25.08,15.11l-39.12-4.32s-12.55-7.2-24.35-5.04c-11.81,2.16-23.61,12.24-28.03,16.56-4.42,4.32-33.95,10.07-37.63,21.6-3.68,11.51-1.47,19.43,14.02,32.4,15.49,12.97-6.64,27.36-11.81,15.85-5.16-11.53-39.84,10.07-32.48,25.2-28.77,2.16-23,21.21-23,21.21,0,0-2.08-3.92-10.21,1.83-8.13,5.75-18.64.73-8.13,18.73,10.5,17.98,73.96-20.06,73.96-20.06,0,0,39.2-8.04,36.46-22.66-2.73-14.64,26.65-3.47,26.65-3.47l57.38,29.85s-6.25,18.54,5.72,22.63c7.15,2.44,37.09-29.19,29.91-32.68-12.03-5.87,10.26-23.7,16.75-23.92,16.16-.59,32.9,17.5,48.99,17.18-.52,17.83,39.2,29.52,39.2,29.52"></path><path class="uuid-d34ccf42-31bc-4f38-8417-ba3bd1b259a4" d="m212.46,163.94c11.51-23.82-10.41-11.86-11.06-24.28-.64-12.41,14.31-14.21,8.84-23.17-5.44-8.94-26.82-23.85-33.21-25.37-6.37-1.54,25.51-26.69,3.33-30.89-22.18-4.2,17.71-19.85,17.71-19.85l2.2-20.97s-8.84-12.14-21.02-15.45c-12.19-3.31-25.03,5.14-34.32,5.51-9.29.4-44.74,25-46.5,30.9-1.74,5.91,1.21,24.62-11.06,52.97-3.5,20.49-39.34-.05-45.38,7.73-18.15,9.82-24.35,32-24.35,32,0,0-18.73,17.92-2.21,18.76,16.51.83,22.11,13.95,36.68,12.15,14.55-1.78,47.81-41.94,47.81-41.94,0,0,15.18-9.34,40.16,1.9,29.47-6.47,60.89,63.83,72.41,40.01"></path><path class="uuid-d34ccf42-31bc-4f38-8417-ba3bd1b259a4" d="m315.55,154.05c-17.24-5.89-14.69-15.54-14.69-15.54l-11.97-18.54s-14.67,10.69-31.76,2.92c-17.09-7.77,7.97-23.89,11.61-30.99,3.61-7.1,14.14-2.27,16.87-9.97s-15.81-3.31-15.81-3.31c0,0-13.33,14.5-18.99,22.13-5.65,7.63-14.05,9.92-21.09,4.42-7.05-5.48-17.95-13.26-17.95-13.26,0,0-13.9-2.54-9.49-8.86s11.34-19.04,17.93-30.99c6.59-11.97,11.6-16.59,3.16-25.46,1.06-19.92,30.57-26.57,30.57-26.57,0,0,14.77,1.11,31.64,5.53,16.87,4.42,14.76,33.21,28.46,32.1,13.71-1.11,16.87,32.1,16.87,32.1,0,0-17.93,14.4-16.87,25.46,1.06,11.06,34.85,13.52,41.32,17.78,25.15,16.49-6.91,21.32-5.66,25.29,1.3,4.16,13.69,1.18,14.84,15.62,1.21,15.26-32.19,5.92-49.04.15"></path><path class="uuid-d34ccf42-31bc-4f38-8417-ba3bd1b259a4" d="m223.15,366.96c0,3.68-.88,83.09,35.21,120.93l-101.09-.92c46.71-29.54,28.88-115.4,28.88-115.4l37.01-4.61h0Z"></path></g></g></svg>